<svg width="40" height="40" viewBox="0 0 40 40" fill="none" xmlns="http://www.w3.org/2000/svg">
<rect width="40" height="40" rx="20" fill="#004084" fill-opacity="0.4"/>
<path d="M23.8184 20.1565C23.7648 20.2101 23.7112 20.2369 23.6576 20.2905C23.604 20.3441 23.5504 20.3709 23.4968 20.4245C23.3896 20.5049 23.2824 20.5853 23.1484 20.6657L20.7633 25.5431L20.2809 22.7292L20.9777 21.6036C20.8973 21.6304 20.8169 21.6304 20.7097 21.6572C20.4953 21.684 20.2541 21.7108 20.0397 21.7376C19.9057 21.7376 19.7985 21.7644 19.6645 21.7644C19.1822 21.7644 18.6998 21.7108 18.2442 21.6036L18.9678 22.756L18.5122 25.6235L15.8859 20.4513C15.7519 20.3441 15.6447 20.2637 15.5375 20.1565L15.4839 20.2101C11.9464 23.2652 12 28.5982 12 28.8126V29.0002H27.0878V28.8126C26.9003 22.5952 24.4348 20.5585 23.8184 20.1565Z" fill="white"/>
<path d="M19.7171 10C16.5816 10 14.0625 12.5459 14.0625 15.6546C14.0625 18.7901 16.6084 21.3092 19.7171 21.3092C22.8526 21.3092 25.3717 18.7633 25.3717 15.6546C25.3717 12.5459 22.8258 10 19.7171 10Z" fill="white"/>
</svg>
