<svg width="40" height="40" viewBox="0 0 40 40" fill="none" xmlns="http://www.w3.org/2000/svg">
<rect width="40" height="40" rx="20" fill="#004084" fill-opacity="0.4"/>
<path d="M12.7004 12.9765C11.753 12.9765 11 13.6649 11 14.531V26.5455C11 27.4116 11.753 28.1 12.7004 28.1H27.2996C28.247 28.1 29 27.4116 29 26.5455V14.531C29 13.6649 28.247 12.9765 27.2996 12.9765H26.7166V13.9536C26.7166 14.6199 26.1336 15.1529 25.4049 15.1529C24.6761 15.1529 24.0931 14.6199 24.0931 13.9536V12.9765H15.8826V13.9536C15.8826 14.6199 15.2996 15.1529 14.5708 15.1529C13.8421 15.1529 13.2591 14.6199 13.2591 13.9536V12.9765H12.7004ZM13.7692 17.3292H26.2308C26.5951 17.3292 26.9109 17.5735 26.9109 17.8844V25.6571C26.9109 25.9681 26.5951 26.2123 26.2308 26.2123H13.7692C13.4049 26.2123 13.0891 25.9681 13.0891 25.6571V17.8844C13.0891 17.5735 13.4049 17.3292 13.7692 17.3292Z" fill="white"/>
<path d="M13.9609 11.5775V12.9766V13.9537C13.9609 14.2646 14.2281 14.5311 14.5925 14.5311C14.9326 14.5311 15.2241 14.2646 15.2241 13.9537V12.9766V11.5775C15.2241 11.2666 14.9326 11.0001 14.5925 11.0001C14.2524 11.0001 13.9609 11.2666 13.9609 11.5775Z" fill="white"/>
<path d="M24.7734 11.5775V12.9766V13.9537C24.7734 14.2646 25.0649 14.5311 25.405 14.5311C25.7451 14.5311 26.0366 14.2646 26.0366 13.9537V12.9766V11.5775C26.0366 11.2666 25.7694 11.0001 25.405 11.0001C25.0649 11.0001 24.7734 11.2666 24.7734 11.5775Z" fill="white"/>
<path d="M17.581 18.2841H14.2773V21.371H17.581V18.2841Z" fill="white"/>
<path d="M21.7372 18.284H18.4336V21.3709H21.7372V18.284Z" fill="white"/>
<path d="M17.581 22.0817H14.2773V25.1686H17.581V22.0817Z" fill="white"/>
<path d="M21.7372 22.0816H18.4336V25.1685H21.7372V22.0816Z" fill="white"/>
<path d="M26.038 18.284H22.7344V21.3709H26.038V18.284Z" fill="white"/>
<path d="M26.038 22.0816H22.7344V25.1685H26.038V22.0816Z" fill="white"/>
</svg>
