<svg width="25" height="17" viewBox="0 0 25 17" fill="none" xmlns="http://www.w3.org/2000/svg">
<path d="M24.7211 7.53749C23.4188 5.40766 21.6678 3.69636 19.4684 2.40361C17.2688 1.11082 14.9461 0.464355 12.5 0.464355C10.0539 0.464355 7.73114 1.11058 5.53153 2.40361C3.33188 3.69636 1.58099 5.40766 0.278915 7.53749C0.0929878 7.86297 0 8.18386 0 8.50016C0 8.81645 0.0929878 9.13734 0.278915 9.46273C1.58099 11.5927 3.33188 13.3041 5.53153 14.5966C7.73114 15.8895 10.0539 16.5355 12.5 16.5355C14.9461 16.5355 17.2688 15.8916 19.4684 14.6036C21.6678 13.3155 23.4191 11.6018 24.7211 9.46273C24.9071 9.13734 25 8.8166 25 8.50016C25 8.18386 24.9071 7.86297 24.7211 7.53749ZM9.50733 3.72186C10.3397 2.88952 11.3371 2.4732 12.4999 2.4732C12.6858 2.4732 12.844 2.53848 12.9743 2.6686C13.1043 2.79878 13.1697 2.95695 13.1697 3.14292C13.1697 3.32905 13.1043 3.48712 12.9746 3.6171C12.8445 3.74742 12.6862 3.8125 12.5002 3.8125C11.7004 3.8125 11.0166 4.09631 10.4493 4.66352C9.88188 5.23107 9.59832 5.91458 9.59832 6.71438C9.59832 6.9006 9.53304 7.05858 9.40291 7.18885C9.27259 7.31922 9.11457 7.38425 8.92859 7.38425C8.74247 7.38425 8.5844 7.31907 8.45412 7.18885C8.32381 7.05858 8.25872 6.9004 8.25872 6.71438C8.25872 5.55191 8.67504 4.55426 9.50733 3.72186ZM18.5618 13.0553C16.6969 14.1851 14.6764 14.7503 12.5 14.7503C10.3237 14.7503 8.30313 14.1854 6.43839 13.0553C4.57365 11.9253 3.02276 10.4069 1.78583 8.50016C3.19951 6.30515 4.97126 4.66347 7.10109 3.57551C6.53378 4.54263 6.25002 5.58905 6.25002 6.71433C6.25002 8.43512 6.86165 9.90656 8.08457 11.1298C9.30748 12.353 10.7795 12.9643 12.5 12.9643C14.2207 12.9643 15.6922 12.3526 16.9154 11.1298C18.1386 9.9069 18.75 8.43512 18.75 6.71433C18.75 5.58905 18.4662 4.54248 17.8989 3.57551C20.0286 4.66347 21.8004 6.30529 23.2141 8.50016C21.9773 10.4069 20.4266 11.9253 18.5618 13.0553Z" fill="#787878"/>
</svg>
