<svg width="1920" height="179" viewBox="0 0 1920 179" fill="none" xmlns="http://www.w3.org/2000/svg">
<path d="M1033.47 174.343H1014.77L1005.13 74.0312H1038.32V72.1078L1003.75 59.729L1002.35 45.1098L1021.94 38.4525V36.5299H1001.52L998.261 2.58496H997.55L994.288 36.5299H973.877V38.4525L993.465 45.1098L992.057 59.729L957.495 72.1078V74.0312H990.683L981.04 174.343H931.086V106.866L906.093 90.6298M1033.47 174.343H-262H-165.347V119.045C-165.412 100.476 -153.387 92.8196 -141.017 92.6134M1033.47 174.343H1070.21L1077.94 93.8563H1051.32V92.3146L1079.05 82.3817L1080.84 63.7671M1033.47 174.343H1169H1097.27L1089.54 93.8563H1116.17V92.3146L1088.43 82.3817L1086.64 63.7636L1103.02 63.7671H1086.64L1084.03 36.5299H1083.46L1080.84 63.7671M906.093 90.6298L881.098 106.866L881.096 174.343H862.724V101.164L836.3 83.9977M906.093 90.6298V72.1317L763.099 55.6902V77.8139M906.093 90.6298L763.099 77.8139M836.3 83.9977L809.877 101.164V174.343H790.854V95.8477L763.099 77.8139M836.3 83.9977V64.31M763.099 77.8139L735.345 95.8477V174.343H659.506L651.084 100.193L693.38 128.937L704.852 95.1596L619.895 57.5721L628.221 38.2737L601.767 22.2783L588.24 77.9928C585.482 89.3496 590.488 101.581 599.376 105.123L612.746 74.1392L633.585 88.2996L623.258 174.343L587.77 173.316C589.04 137.598 574.545 118.64 554.901 109.989V95.3209H527.279V109.959C509.947 117.598 497.095 137.576 495.127 161.698C489.675 148.491 480.676 139.481 466.357 139.481C452.038 139.481 436.8 154.572 434.272 174.343H409.582V144.333H392.162L386.899 46.6003L490.682 38.5725V29.1642H385.961L384.53 2.58496H370.985L369.552 29.1642H330.218V50.9828L368.537 48.0179L363.352 144.333H307.523L301.322 29.1642H282.348L273.52 174.343H258.428L249.091 2.58496H228.88L217.909 174.343H193.013C182.309 145.599 179.868 115.122 182.746 83.5313H134.833C137.967 110.818 136.041 137.028 128.241 161.995C118.382 128.964 114.429 95.49 119.186 61.3528H59.5706C64.4334 100.095 59.5706 137.684 46.795 174.343H23.774V130.524L-6.54535 149.386V130.524L-36.2746 149.386V130.524L-64.3397 149.386L-71.6566 35.24H-85.799L-93.2523 151.538H-117.065L-117.184 119.045C-116.906 99.7701 -129.122 92.4149 -141.017 92.6134M-141.017 92.6134V77.2338H-179.545V174.343L-141.017 92.6134ZM1080.84 63.7671H1064.46M466.357 45.1947L491.26 100.431H441.455L466.357 45.1947Z" stroke="white" stroke-opacity="0.1" stroke-width="2" stroke-miterlimit="22.9256"/>
<path fill-rule="evenodd" clip-rule="evenodd" d="M2363.47 173.326H2344.77L2335.13 73.015H2368.32V71.0917L2333.75 58.7129L2332.35 44.0937L2351.94 37.4364V35.5138H2331.52L2328.26 1.56885H2327.55L2324.29 35.5138H2303.88V37.4364L2323.47 44.0937L2322.06 58.7129L2287.5 71.0917V73.015H2320.68L2311.04 173.326H2261.09V105.85L2236.09 89.6136L2211.1 105.85L2211.1 173.326H2192.72V100.148L2166.3 82.9816L2139.88 100.148V173.326H2120.85V94.8315L2093.1 76.7978L2065.34 94.8315V173.326H1989.51L1981.08 99.1769L2023.38 127.921L2034.85 94.1435L1949.9 56.556L1958.22 37.2576L1931.77 21.2622L1918.24 76.9767C1915.48 88.3335 1920.49 100.565 1929.38 104.107L1942.75 73.1231L1963.58 87.2835L1953.26 173.326L1917.77 172.3C1919.04 136.582 1904.55 117.624 1884.9 108.972V94.3048H1857.28V108.943C1839.95 116.582 1827.1 136.56 1825.13 160.682C1819.68 147.475 1810.68 138.465 1796.36 138.465C1782.04 138.465 1766.8 153.556 1764.27 173.326H1739.58V143.316H1722.16L1716.9 45.5842L1820.68 37.5564V28.1481H1715.96L1714.53 1.56885H1700.99L1699.55 28.1481H1660.22V49.9667L1698.54 47.0018L1693.35 143.316H1637.52L1631.32 28.1481H1612.35L1603.52 173.326H1588.43L1579.09 1.56885H1558.88L1547.91 173.326H1523.01C1512.31 144.583 1509.87 114.106 1512.75 82.5152H1464.83C1467.97 109.802 1466.04 136.012 1458.24 160.978C1448.38 127.948 1444.43 94.4739 1449.19 60.3367H1389.57C1394.43 99.0788 1389.57 136.668 1376.79 173.326H1353.77V129.507L1323.45 148.37V129.507L1293.73 148.37V129.507L1265.66 148.37L1258.34 34.2239H1244.2L1236.75 150.522H1212.93L1212.82 118.029C1213.09 98.754 1200.88 91.3988 1188.98 91.5973C1176.61 91.8035 1164.59 99.4603 1164.65 118.029V173.326H1068H2363.47ZM2499 173.326H2427.27L2419.54 92.8402H2446.17V91.2984L2418.43 81.3655L2416.64 62.7475L2433.02 62.751H2416.64L2414.03 35.5138H2413.46L2410.84 62.751H2394.46H2410.84L2409.05 81.3655L2381.32 91.2984V92.8402H2407.94L2400.21 173.326H2363.47H2499ZM1188.98 91.5973V76.2177H1150.45V173.326L1188.98 91.5973ZM2236.09 89.6136V71.1156L2093.1 54.674V76.7978L2236.09 89.6136ZM2166.3 82.9816V63.2939V82.9816ZM1796.36 44.1786L1821.26 99.4147H1771.46L1796.36 44.1786Z" stroke="white" stroke-opacity="0.1" stroke-width="2" stroke-miterlimit="22.9256"/>
</svg>
