<svg width="16" height="17" viewBox="0 0 16 17" fill="none" xmlns="http://www.w3.org/2000/svg">
<path d="M7.99783 7.73733C8.61315 7.73733 9.21465 7.55838 9.72627 7.2231C10.2379 6.88782 10.6366 6.41127 10.8721 5.85372C11.1076 5.29618 11.1692 4.68266 11.0492 4.09077C10.9291 3.49888 10.6328 2.9552 10.1977 2.52847C9.76262 2.10174 9.20827 1.81113 8.60478 1.6934C8.00128 1.57566 7.37574 1.63609 6.80726 1.86703C6.23878 2.09798 5.75289 2.48907 5.41104 2.99085C5.06918 3.49263 4.88672 4.08256 4.88672 4.68605C4.88672 5.4953 5.2145 6.27141 5.79794 6.84363C6.38139 7.41586 7.17271 7.73733 7.99783 7.73733Z" fill="#EC650A"/>
<path d="M12.6658 15.3653C12.8721 15.3653 13.0699 15.2849 13.2158 15.1418C13.3616 14.9988 13.4436 14.8048 13.4436 14.6024C13.4436 13.1863 12.87 11.8281 11.8489 10.8267C10.8279 9.82527 9.44309 9.2627 7.99913 9.2627C6.55518 9.2627 5.17036 9.82527 4.14933 10.8267C3.1283 11.8281 2.55469 13.1863 2.55469 14.6024C2.55469 14.8048 2.63663 14.9988 2.78249 15.1418C2.92836 15.2849 3.12619 15.3653 3.33247 15.3653H12.6658Z" fill="#EC650A"/>
</svg>
