<svg width="20" height="20" viewBox="0 0 20 20" fill="none" xmlns="http://www.w3.org/2000/svg">
<path d="M15.4207 16.8954C13.9094 18.4066 10.0392 16.9866 6.7762 13.7236C3.51325 10.4607 2.09323 6.59044 3.60449 5.07917L4.59953 4.08412C5.28647 3.39718 6.41838 3.41534 7.12771 4.12468L8.66896 5.66592C9.37829 6.37526 9.39645 7.50716 8.70951 8.1941L8.49579 8.40783C8.1249 8.77871 8.08862 9.37703 8.43324 9.79465C8.76565 10.1975 9.12402 10.5987 9.51258 10.9873C9.90114 11.3758 10.3024 11.7342 10.7052 12.0666C11.1228 12.4112 11.7211 12.3749 12.092 12.0041L12.3057 11.7903C12.9927 11.1034 14.1246 11.1216 14.8339 11.8309L16.3752 13.3721C17.0845 14.0815 17.1027 15.2134 16.4157 15.9003L15.4207 16.8954Z" fill="#EC650A"/>
<path d="M14.3113 8.22047C14.1226 7.76022 13.8414 7.32901 13.4677 6.9553C13.1151 6.60269 12.7113 6.33245 12.2802 6.14457" stroke="#EC650A" stroke-linecap="round"/>
<path d="M12.279 3.51304C13.311 3.88693 14.2794 4.48758 15.1068 5.31499C15.955 6.16318 16.5648 7.15944 16.9365 8.22063" stroke="#EC650A" stroke-linecap="round"/>
</svg>
