<svg width="40" height="40" viewBox="0 0 40 40" fill="none" xmlns="http://www.w3.org/2000/svg">
<rect width="40" height="40" rx="20" fill="#004084" fill-opacity="0.4"/>
<path d="M28.7868 18.6935C29.1239 18.3924 29.0565 18.0245 28.6182 17.8907L27.0671 17.389C26.6288 17.2552 26.4265 16.787 26.5951 16.3521L27.202 14.847C27.3706 14.4122 27.1346 14.1446 26.6963 14.2115L25.0778 14.4791C24.6394 14.546 24.2011 14.2449 24.1674 13.7767L23.9988 12.1712C23.9651 11.7029 23.5942 11.5691 23.2233 11.8367L21.9083 12.8067C21.5374 13.0743 21.0316 13.0074 20.7619 12.606L19.8515 11.2681C19.5817 10.9002 19.2109 10.9002 19.0423 11.335L18.3342 12.8067C18.1319 13.2081 17.6598 13.3753 17.2552 13.1746L15.8053 12.4053C15.4007 12.2046 15.0973 12.3719 15.0973 12.8401L15.1647 14.4791C15.1984 14.9473 14.8275 15.3153 14.3555 15.2818L12.7033 15.2484C12.2312 15.2484 12.0626 15.5494 12.2987 15.9508L13.1079 17.3556C13.3439 17.7569 13.1753 18.2586 12.7707 18.4593L11.3208 19.1952C10.9162 19.3959 10.8825 19.7638 11.2871 20.0314L12.6696 20.901C13.0742 21.1351 13.1416 21.6368 12.9056 22.0382L11.9615 23.3761C11.6917 23.744 11.8603 24.0785 12.2987 24.112L13.9508 24.2458C14.4229 24.2792 14.7264 24.6806 14.6589 25.1488L14.4566 26.7543C14.3892 27.2226 14.6926 27.4233 15.131 27.256L16.6483 26.6205C17.0866 26.4533 17.5587 26.654 17.6936 27.0888L18.2668 28.6274C18.4354 29.0622 18.8062 29.1291 19.076 28.7612L20.1213 27.4902C20.4247 27.1222 20.9305 27.0888 21.2676 27.3898L22.4815 28.4936C22.8187 28.7946 23.1896 28.6943 23.257 28.226L23.5942 26.6205C23.6954 26.1857 24.1337 25.9181 24.572 26.0185L26.1568 26.4199C26.5951 26.5202 26.8648 26.2861 26.73 25.8178L26.2579 24.2458C26.123 23.8109 26.3928 23.3761 26.8311 23.2758L28.4159 22.9079C28.8542 22.8075 28.9554 22.4396 28.6519 22.1051L27.5055 20.9344C27.202 20.6 27.202 20.0983 27.5729 19.7972L28.7868 18.6935Z" fill="white"/>
</svg>
