<svg width="40" height="40" viewBox="0 0 40 40" fill="none" xmlns="http://www.w3.org/2000/svg">
<rect width="40" height="40" rx="20" fill="#004084" fill-opacity="0.4"/>
<path d="M12.2007 17.0887C11.8885 17.0167 11.5283 17.1127 11.2882 17.3529C10.9039 17.7371 10.9039 18.3615 11.2882 18.7458C11.2882 18.7458 11.2882 18.7458 11.3122 18.7458L13.1612 20.5949L16.0669 17.6891L12.2007 17.0887Z" fill="white"/>
<path d="M22.8375 27.631C22.8375 27.631 22.8615 27.631 22.8375 27.631L22.2611 23.9326L19.3555 26.8385L21.1325 28.6156C21.1565 28.6396 21.1805 28.6876 21.2045 28.7116C21.5887 29.0959 22.2131 29.0959 22.5973 28.7116C22.9095 28.3995 22.9815 27.9672 22.8375 27.631Z" fill="white"/>
<path d="M19.5469 21.2436L18.7305 20.4271C18.5864 20.283 18.4183 20.2109 18.2262 20.2109C18.0341 20.2109 17.866 20.283 17.7219 20.4271L16.233 21.916L16.0169 22.1322C15.8728 22.2762 15.8008 22.4443 15.8008 22.6365C15.8008 22.8286 15.8728 22.9967 16.0169 23.1408L16.8334 23.9573C16.9775 24.1014 17.1456 24.1735 17.3377 24.1735C17.5298 24.1735 17.6979 24.1014 17.842 23.9573L19.5469 22.2522C19.691 22.1081 19.7631 21.94 19.7631 21.7479C19.739 21.5558 19.667 21.3877 19.5469 21.2436Z" fill="white"/>
<path d="M26.8003 18.6496L28.9135 12.3576C28.9375 12.2856 28.9615 12.2136 28.9855 12.1415C29.0336 11.8293 28.9615 11.5171 28.7214 11.277C28.4813 11.0368 28.1451 10.9407 27.8329 11.0368C27.7849 11.0608 27.7368 11.0608 27.6888 11.0848L21.5413 13.1021C21.3251 13.1502 21.109 13.2462 20.9649 13.3903L16.5944 17.7611L13.4486 20.9071L12.9203 21.4354C12.4641 21.8917 12.4641 22.6602 12.9203 23.1165L13.6407 23.8369L13.4486 24.1972L15.7539 26.5026L16.1142 26.3105L16.8586 27.055C17.3148 27.5113 18.0833 27.5113 18.5395 27.055L19.0679 26.5266L22.1896 23.4047L26.5602 19.0339C26.6802 18.9138 26.7523 18.7937 26.8003 18.6496ZM18.0353 24.1732C17.651 24.5574 17.0027 24.5814 16.5944 24.1732L15.778 23.3566C15.3697 22.9484 15.3937 22.324 15.778 21.9157L15.9941 21.6996L17.4829 20.2106C17.8672 19.8264 18.5155 19.8264 18.9238 20.2106L19.7402 21.0272C20.1485 21.4354 20.1245 22.0598 19.7402 22.4681L18.0353 24.1732ZM21.109 18.8658C20.3886 18.1453 20.3886 16.9926 21.109 16.2721C21.8294 15.5517 22.9821 15.5517 23.7025 16.2721C24.4229 16.9926 24.4229 18.1453 23.7025 18.8658C22.9821 19.5622 21.8294 19.5622 21.109 18.8658Z" fill="white"/>
</svg>
