<svg width="40" height="40" viewBox="0 0 40 40" fill="none" xmlns="http://www.w3.org/2000/svg">
<rect width="40" height="40" rx="20" fill="#004084" fill-opacity="0.4"/>
<path d="M13.1636 10C12.5172 10 12 10.5281 12 11.1881V28.8119C12 29.4719 12.5172 30 13.1636 30H23.604V27.6568C23.604 26.6337 24.4121 25.7756 25.4465 25.7756H28V11.1881C28 10.5281 27.4828 10 26.8364 10H13.1636ZM24.9293 20.9241H15.0384V20.099H24.9293V20.9241ZM24.9293 18.0528H15.0384V17.2277H24.9293V18.0528ZM24.9293 15.1815H15.0384V14.3564H24.9293V15.1815Z" fill="white"/>
<path d="M25 28.1613V30L28 27H26.0909C25.4848 27 25 27.5161 25 28.1613Z" fill="white"/>
</svg>
