<svg width="40" height="40" viewBox="0 0 40 40" fill="none" xmlns="http://www.w3.org/2000/svg">
<rect width="40" height="40" rx="20" fill="#004084" fill-opacity="0.4"/>
<path d="M20.1328 21.2062C20.104 21.2356 20.0465 21.2944 19.9889 21.3238C19.9601 21.3532 19.9601 21.3532 19.9313 21.3826C19.4995 21.7356 18.5496 22.3532 17.283 22.5591C17.1678 22.5885 17.0239 22.5885 16.9088 22.6179C16.7936 22.6179 16.6785 22.6179 16.5921 22.6179C16.1891 22.6179 15.8149 22.5591 15.4407 22.4709C14.2604 22.1767 13.3681 21.4415 13.109 21.2356C13.0802 21.2062 13.0514 21.2062 13.0226 21.1768L12.9938 21.2062C9.9425 23.912 10.0001 28.6179 10.0001 28.8238V29.0003H23.0402V28.8238C22.8099 23.3532 20.6798 21.5591 20.1328 21.2062ZM18.3193 24.8826L16.477 23.9414L14.6347 24.8826V22.5591L16.477 23.5591L18.3193 22.5591V24.8826Z" fill="white"/>
<path d="M11.7266 17C11.7266 19.7647 13.9143 21.9999 16.6202 21.9999C17.9156 21.9999 19.1534 21.4705 20.0746 20.5294C20.9957 19.5882 21.5139 18.3235 21.5139 17C21.5139 14.2353 19.3261 12 16.6202 12C13.9143 12 11.7266 14.2353 11.7266 17Z" fill="white"/>
<path d="M23.5001 27.8819H28.9982V27.7643C28.9982 27.6172 28.9407 24.1173 26.5514 21.9996L26.5226 21.9702C26.4363 22.029 26.3787 22.1173 26.2923 22.1761L24.5939 25.5584L24.3061 23.5584L24.7954 22.7643C24.4788 22.8525 24.1621 22.882 23.8455 22.882C23.7591 22.882 23.6728 22.882 23.5864 22.882C23.4425 22.882 23.2698 22.8526 23.1258 22.8232C23.0683 22.8232 23.0107 22.7938 22.9531 22.7938L23.4425 23.5879L23.1258 25.4702C23.3273 26.382 23.4713 27.2937 23.5001 27.8819Z" fill="white"/>
<path d="M23.9897 22.3525C26.1199 22.3525 27.847 20.5878 27.847 18.4114C27.847 16.2349 26.1199 14.4702 24.0185 14.4702C23.1549 14.4702 22.3489 14.7643 21.7156 15.2643C21.9171 15.8232 22.0322 16.4408 22.0322 17.0584C22.0322 18.382 21.5716 19.5878 20.7656 20.4996C21.4277 21.6172 22.6079 22.3525 23.9897 22.3525Z" fill="white"/>
</svg>
