<svg width="40" height="40" viewBox="0 0 40 40" fill="none" xmlns="http://www.w3.org/2000/svg">
<rect width="40" height="40" rx="20" fill="#004084" fill-opacity="0.4"/>
<path d="M26.1855 11.2006C26.0073 11.086 25.8036 11.0287 25.6 11C25.5491 11 25.4982 11 25.4473 11H25.2945H22.4182H15.4182C14.5527 11 13.8655 11.7739 13.8655 12.7484V13.6369H13.28C13.1273 13.6369 13 13.7803 13 13.9522V15.5573C13 15.7293 13.1273 15.8726 13.28 15.8726H13.8655V17.0764H13.28C13.1273 17.0764 13 17.2197 13 17.3917V18.9968C13 19.1688 13.1273 19.3121 13.28 19.3121H13.8655V20.5159H13.28C13.1273 20.5159 13 20.6592 13 20.8312V22.4363C13 22.6083 13.1273 22.7516 13.28 22.7516H13.8655V23.9554H13.28C13.1273 23.9554 13 24.0987 13 24.2707V25.8758C13 26.0478 13.1273 26.1911 13.28 26.1911H13.8655V27.2516C13.8655 28.2261 14.5527 29 15.4182 29H25.4473C25.4982 29 25.5491 29 25.6 29C25.8036 28.9713 26.0073 28.914 26.1855 28.7994C26.3127 28.7134 26.44 28.6274 26.5418 28.4841C26.8473 28.1401 27 27.7102 27 27.2516V12.6624C27 12.2038 26.8473 11.7452 26.5418 11.4299C26.44 11.3726 26.3127 11.2866 26.1855 11.2006ZM24.3273 14.6975C24.2509 14.6115 24.2 14.5828 24.0727 14.5828C23.9709 14.5828 23.8945 14.6115 23.8182 14.6975L22.6727 15.9873V11.6306H25.4473V16.0159L24.3273 14.6975Z" fill="white"/>
</svg>
