<svg width="18" height="18" viewBox="0 0 18 18" fill="none" xmlns="http://www.w3.org/2000/svg">
<rect width="18" height="18" rx="9" fill="#004084"/>
<path d="M13.3067 5.82034C13.2509 5.75844 13.1845 5.70931 13.1113 5.67579C13.0382 5.64226 12.9597 5.625 12.8805 5.625C12.8012 5.625 12.7227 5.64226 12.6496 5.67579C12.5764 5.70931 12.51 5.75844 12.4542 5.82034L7.98145 10.7467L6.10229 8.67312C6.04434 8.61155 5.97594 8.56313 5.90098 8.53064C5.82602 8.49815 5.74598 8.48221 5.66542 8.48375C5.58486 8.48528 5.50537 8.50425 5.43147 8.53957C5.35758 8.5749 5.29074 8.62589 5.23476 8.68963C5.17878 8.75337 5.13477 8.82861 5.10523 8.91106C5.07569 8.99351 5.0612 9.08155 5.06259 9.17016C5.06399 9.25877 5.08123 9.34621 5.11335 9.42749C5.14546 9.50876 5.19182 9.58229 5.24977 9.64386L7.55519 12.1797C7.611 12.2416 7.6774 12.2907 7.75056 12.3242C7.82372 12.3577 7.90219 12.375 7.98145 12.375C8.0607 12.375 8.13918 12.3577 8.21234 12.3242C8.2855 12.2907 8.3519 12.2416 8.40771 12.1797L13.3067 6.79107C13.3677 6.72924 13.4163 6.65418 13.4496 6.57065C13.4828 6.48711 13.5 6.3969 13.5 6.3057C13.5 6.21451 13.4828 6.1243 13.4496 6.04076C13.4163 5.95723 13.3677 5.88217 13.3067 5.82034Z" fill="white"/>
</svg>
