<svg width="220" height="57" viewBox="0 0 220 57" fill="none" xmlns="http://www.w3.org/2000/svg">
<g clip-path="url(#clip0_104_18405)">
<path fill-rule="evenodd" clip-rule="evenodd" d="M22.6758 10.9746L14.4466 35.0518H8.17517L-0.0546875 10.9746H6.17405L11.382 27.297L16.5901 10.9746H22.6758ZM59.7856 45.9694L56.1658 54.697C55.9523 55.2049 55.7109 55.6056 55.4478 55.8985C55.1841 56.1908 54.9056 56.4139 54.6147 56.5666C54.3213 56.7167 54.0304 56.8196 53.7401 56.8694C53.4492 56.9218 53.1434 56.9467 52.8221 56.9467C52.4867 56.9467 52.0967 56.9392 51.6541 56.9243C51.2091 56.9093 50.9132 56.8968 50.7616 56.8819V54.5743H50.9281C50.9727 54.5842 51.0401 54.5942 51.1318 54.6091C51.224 54.6241 51.341 54.6366 51.4827 54.6515C51.5991 54.6615 51.7259 54.6721 51.8603 54.6796C51.9971 54.6895 52.1215 54.6945 52.2335 54.6945C52.5566 54.6945 52.8649 54.654 53.1533 54.5718C53.4418 54.4914 53.6355 54.3511 53.7321 54.1536L49.7174 45.9694H52.6606L54.9879 51.095L56.9569 45.9694H59.7856ZM70.1589 56.8869H67.4292V52.8474C66.9149 52.9646 66.4674 53.0549 66.0867 53.1147C65.7091 53.1777 65.2121 53.2076 64.6005 53.2076C64.1332 53.2076 63.6981 53.1478 63.2951 53.025C62.8922 52.9022 62.5344 52.7097 62.2237 52.4442C61.9179 52.1762 61.6765 51.8435 61.5026 51.4484C61.3262 51.0526 61.2395 50.5697 61.2395 50.0038V45.9694H63.9686V48.5599C63.9686 49.0179 63.984 49.3806 64.0162 49.6436C64.0484 49.9085 64.1456 50.164 64.3047 50.407C64.4514 50.627 64.6575 50.7947 64.9236 50.9074C65.1892 51.0202 65.5624 51.0751 66.0397 51.0751C66.2111 51.0751 66.4401 51.0626 66.7311 51.0377C67.0213 51.0153 67.2528 50.9847 67.4292 50.9498V45.9694H70.1589V56.8869ZM73.2649 56.8869V45.9694H80.604V48.0564H75.9797V49.9639H80.2457V52.051H75.9797V54.7992H80.604V56.8869H73.2649ZM92.0234 53.3977C92.0234 53.9311 91.9213 54.4191 91.7201 54.8671C91.5184 55.3152 91.2423 55.6804 90.8944 55.9633C90.4741 56.3011 90.0241 56.5391 89.542 56.6793C89.0573 56.8171 88.468 56.8869 87.7748 56.8869H83.312V45.9694H91.2027V48.0564H86.0268V50.0693H87.8194C88.4705 50.0693 89.0524 50.1166 89.5667 50.2113C90.0817 50.3067 90.5441 50.5167 90.952 50.8401C91.3271 51.1324 91.5982 51.5007 91.7672 51.9413C91.9386 52.3844 92.0234 52.8698 92.0234 53.3977ZM89.2188 53.4731C89.2188 53.293 89.1991 53.1222 89.1619 52.9596C89.1223 52.7994 89.0375 52.6492 88.9057 52.514C88.7738 52.3819 88.5925 52.2766 88.3641 52.1987C88.135 52.1214 87.8194 52.0815 87.4139 52.0815H86.0268V54.8597H87.4139C87.976 54.8597 88.4161 54.7394 88.7367 54.4989C89.0573 54.2614 89.2188 53.9187 89.2188 53.4731ZM103.575 56.8869H100.845V52.051H97.1454V56.8869H94.4158V45.9694H97.1454V49.9639H100.845V45.9694H103.575V56.8869ZM105.523 56.8869L109.189 45.9694H112.162L115.829 56.8869H113.028L112.354 54.6796H108.918L108.247 56.8869H105.523ZM111.753 52.6823L110.636 49.0603L109.52 52.6823H111.753ZM126.21 56.8869H123.495V52.8773H122.488L119.763 56.8869H116.514L119.743 52.3563C119.08 52.069 118.566 51.6634 118.205 51.1399C117.844 50.6195 117.663 49.944 117.663 49.1177C117.663 48.5624 117.784 48.0769 118.031 47.6613C118.275 47.2456 118.588 46.9079 118.965 46.6424C119.296 46.4149 119.696 46.2448 120.171 46.1345C120.643 46.0242 121.186 45.9694 121.797 45.9694H126.21V56.8869ZM123.495 50.9099V47.9666H122.62C122.197 47.9666 121.871 47.9791 121.643 48.0066C121.414 48.0339 121.193 48.1268 120.976 48.2894C120.812 48.4122 120.686 48.5724 120.599 48.7699C120.512 48.9675 120.467 49.1881 120.467 49.428C120.467 49.676 120.514 49.901 120.606 50.0992C120.698 50.2967 120.827 50.4594 120.992 50.5871C121.178 50.7348 121.394 50.8246 121.646 50.8576C121.896 50.8925 122.225 50.9099 122.635 50.9099H123.495ZM138.373 57.0969C136.747 57.0969 135.457 56.6015 134.502 55.6106C133.545 54.6191 133.067 53.2276 133.067 51.4303C133.067 49.6985 133.547 48.3194 134.505 47.288C135.464 46.2598 136.754 45.7438 138.38 45.7438C138.81 45.7438 139.201 45.7687 139.544 45.8167C139.889 45.8665 140.217 45.9345 140.533 46.0217C140.782 46.0971 141.05 46.1968 141.341 46.3246C141.632 46.4498 141.868 46.5601 142.047 46.6524V49.2579H141.771C141.639 49.1401 141.475 49.003 141.276 48.8397C141.075 48.6771 140.851 48.5169 140.598 48.3617C140.346 48.2066 140.068 48.0738 139.765 47.9642C139.461 47.8564 139.143 47.8015 138.813 47.8015C138.42 47.8015 138.059 47.8638 137.731 47.9891C137.406 48.1119 137.093 48.3293 136.797 48.6347C136.526 48.9126 136.302 49.2903 136.13 49.7639C135.959 50.2369 135.872 50.7947 135.872 51.4378C135.872 52.1164 135.961 52.6872 136.14 53.1478C136.322 53.6083 136.555 53.981 136.849 54.2639C137.13 54.5368 137.443 54.7344 137.791 54.8572C138.137 54.9799 138.485 55.0398 138.828 55.0398C139.188 55.0398 139.529 54.9799 139.854 54.8622C140.18 54.7444 140.456 54.6116 140.677 54.4665C140.921 54.3188 141.134 54.1661 141.318 54.0109C141.503 53.8557 141.664 53.718 141.799 53.5983H142.047V56.1609C141.848 56.2537 141.617 56.359 141.356 56.4787C141.095 56.599 140.824 56.6993 140.548 56.7816C140.207 56.8844 139.892 56.9616 139.596 57.0171C139.3 57.0695 138.892 57.0969 138.373 57.0969ZM144.521 56.8869V45.9694H151.861V48.0564H147.236V49.9639H151.502V52.051H147.236V54.7992H151.861V56.8869H144.521ZM156.657 56.8869V48.0564H153.45V45.9694H162.594V48.0564H159.387V56.8869H156.657ZM173.24 53.3977C173.24 53.9311 173.138 54.4191 172.937 54.8671C172.735 55.3152 172.459 55.6804 172.109 55.9633C171.691 56.3011 171.241 56.5391 170.757 56.6793C170.272 56.8171 169.683 56.8869 168.986 56.8869H164.574V45.9694H167.303V50.0693H169.036C169.673 50.0693 170.25 50.1141 170.764 50.2039C171.278 50.2942 171.746 50.5067 172.168 50.8401C172.544 51.1324 172.815 51.5007 172.984 51.9413C173.156 52.3844 173.24 52.8698 173.24 53.3977ZM170.436 53.4731C170.436 53.293 170.416 53.1222 170.378 52.9596C170.339 52.7994 170.255 52.6492 170.123 52.514C169.991 52.3819 169.809 52.2766 169.58 52.1987C169.352 52.1214 169.036 52.0815 168.633 52.0815H167.303V54.8597H168.633C169.188 54.8597 169.626 54.7419 169.951 54.5038C170.274 54.2664 170.436 53.9236 170.436 53.4731ZM99.4969 21.8049C99.7494 25.5184 98.4056 29.136 95.7893 31.7702C93.4799 34.0953 90.2897 35.5335 86.7665 35.5335C83.2427 35.5335 80.0531 34.0953 77.7438 31.7702C75.1268 29.136 73.7836 25.5184 74.0361 21.8049H79.3661C79.3661 24.2664 79.7078 26.1173 81.5331 27.9551C82.8726 29.303 84.7227 30.1374 86.7665 30.1374C88.8103 30.1374 90.6604 29.303 91.9993 27.9551C93.8252 26.1173 94.1669 24.2664 94.1669 21.8049H99.4969ZM45.2181 18.5699C45.2181 19.6904 45.0429 20.756 44.6864 21.7718C44.3354 22.7814 43.8254 23.6314 43.1619 24.3107C42.7564 24.7301 42.3071 25.1165 41.8187 25.4754C41.331 25.8281 40.7937 26.1316 40.2075 26.3803C39.6152 26.6233 38.9789 26.8221 38.2881 26.9598C37.598 27.0975 36.8242 27.1698 35.9639 27.1698H32.817V35.0518H26.7969V10.9746H36.0901C37.4717 10.9746 38.6613 11.1017 39.6647 11.356C40.6674 11.6096 41.5724 12.0072 42.3894 12.5587C43.2881 13.1607 43.9845 13.9665 44.4784 14.9767C44.9711 15.9812 45.2181 17.179 45.2181 18.5699ZM39.034 18.7189C39.034 18.0402 38.8749 17.4607 38.5518 16.969C38.2336 16.4835 37.8499 16.147 37.3999 15.9644C36.8354 15.7164 36.2925 15.5724 35.772 15.5344C35.2564 15.4952 34.5545 15.4789 33.6669 15.4789H32.817V22.6655H33.2336C33.7981 22.6655 34.3353 22.6599 34.8342 22.6493C35.3387 22.6381 35.7775 22.5994 36.1502 22.539C36.4683 22.4835 36.8081 22.3782 37.1696 22.2243C37.5261 22.0641 37.8004 21.8927 37.9922 21.6996C38.3977 21.3026 38.6718 20.8882 38.8204 20.4575C38.9628 20.0269 39.034 19.4474 39.034 18.7189ZM71.8233 35.0518H64.4873L57.8315 26.2089H55.7047V35.0518H49.7174V10.9746H59.3393C60.6664 10.9746 61.8232 11.0575 62.8098 11.2232C63.7971 11.394 64.707 11.7417 65.5401 12.2664C66.3956 12.8186 67.0752 13.5141 67.5797 14.3585C68.0841 15.2029 68.3367 16.2791 68.3367 17.5822C68.3367 19.4256 67.925 20.9156 67.0968 22.0641C66.2693 23.212 65.1675 24.1231 63.7804 24.8017L71.8233 35.0518ZM62.1519 18.3269C62.1519 17.7199 62.0368 17.2014 61.8065 16.7652C61.5762 16.329 61.1981 15.9869 60.6664 15.7494C60.2931 15.5892 59.8766 15.4902 59.416 15.4459C58.9555 15.4017 58.3854 15.3799 57.7058 15.3799H55.7047V21.8709H57.4149C58.2487 21.8709 58.9555 21.8211 59.5367 21.7164C60.1179 21.6167 60.6113 21.396 61.0167 21.0589C61.4011 20.761 61.6858 20.3971 61.8721 19.9777C62.0584 19.5583 62.1519 19.0062 62.1519 18.3269ZM125.536 33.6721C124.49 34.1027 123.124 34.5253 121.447 34.9359C119.776 35.3454 118.119 35.5485 116.491 35.5485C112.735 35.5485 109.735 34.4548 107.504 32.27C105.274 30.0857 104.155 26.9879 104.155 22.9746C104.155 19.1937 105.276 16.1688 107.504 13.8948C109.737 11.6177 112.79 10.4779 116.666 10.4779C118.673 10.4779 120.296 10.6711 121.551 11.0519C122.806 11.4332 124.1 11.9573 125.438 12.6142V18.2608H124.89C124.605 18.0346 124.188 17.7143 123.645 17.3005C123.103 16.8867 122.574 16.5328 122.061 16.2405C121.464 15.9002 120.765 15.5998 119.977 15.3518C119.194 15.1057 118.36 14.9823 117.477 14.9823C116.452 14.9823 115.508 15.1443 114.665 15.4677C113.817 15.793 113.057 16.286 112.395 16.9584C111.761 17.6027 111.262 18.4322 110.893 19.4256C110.524 20.417 110.339 21.5724 110.339 22.8917C110.339 25.7128 111.042 27.7943 112.445 29.1347C113.847 30.4752 115.767 31.1438 118.201 31.1438C118.414 31.1438 118.668 31.137 118.957 31.1277C119.247 31.1171 119.5 31.0996 119.714 31.0778V26.3416H115.076V21.8049H125.536V33.6721ZM154.076 35.0518H146.741L140.085 26.2089H137.958V35.0518H131.971V10.9746H141.593C142.92 10.9746 144.078 11.0562 145.063 11.2232C146.049 11.3903 146.964 11.7386 147.793 12.2664C148.651 12.8123 149.328 13.5141 149.833 14.3585C150.337 15.2029 150.59 16.2791 150.59 17.5822C150.59 19.4256 150.178 20.9156 149.351 22.0641C148.523 23.212 147.421 24.1231 146.034 24.8017L154.076 35.0518ZM144.406 18.3269C144.406 17.7199 144.29 17.2008 144.06 16.7652C143.83 16.329 143.452 15.9825 142.92 15.7494C142.549 15.5874 142.128 15.4889 141.67 15.4459C141.211 15.4029 140.636 15.3799 139.959 15.3799H137.958V21.8709H139.669C140.502 21.8709 141.21 21.8174 141.79 21.7164C142.369 21.6154 142.861 21.388 143.271 21.0589C143.648 20.756 143.94 20.3965 144.126 19.9777C144.312 19.5583 144.406 19.0062 144.406 18.3269ZM157.059 35.0518V10.9746H173.244V15.578H163.046V19.7845H172.454V24.388H163.046V30.4484H173.244V35.0518H157.059ZM186.613 35.4825C184.788 35.4825 183.18 35.3018 181.794 34.9471C180.409 34.5925 179.124 34.152 177.935 33.6222V27.8983H178.478C179.678 28.9197 180.995 29.7075 182.436 30.2552C183.876 30.8023 185.276 31.0778 186.635 31.0778C186.975 31.0778 187.426 31.0398 187.984 30.9675C188.547 30.894 188.996 30.765 189.338 30.6085C189.75 30.4204 190.112 30.1704 190.396 29.847C190.684 29.5167 190.829 29.0849 190.829 28.5495C190.829 27.9482 190.593 27.4546 190.122 27.0757C189.658 26.7012 189.09 26.4239 188.439 26.2531C187.629 26.0406 186.761 25.8325 185.835 25.6406C184.91 25.4486 184.045 25.2106 183.247 24.9289C181.394 24.2752 180.07 23.3884 179.267 22.2791C178.466 21.1723 178.066 19.7789 178.066 18.1063C178.066 15.8541 179.015 14.0294 180.906 12.636C182.8 11.2394 185.166 10.544 188 10.544C189.426 10.544 190.842 10.6885 192.249 10.9802C193.652 11.2706 194.914 11.6645 196.027 12.1617V17.6645H195.5C194.612 16.9029 193.53 16.261 192.255 15.7382C190.979 15.2153 189.667 14.9486 188.319 14.9486C187.797 14.9486 187.324 14.986 186.909 15.0596C186.494 15.1331 186.054 15.2851 185.593 15.4952C185.224 15.6634 184.898 15.9177 184.629 16.2517C184.358 16.5882 184.217 16.964 184.217 17.3828C184.217 17.996 184.432 18.4846 184.865 18.846C185.295 19.2043 186.137 19.5365 187.375 19.8232C188.173 20.0076 188.951 20.1802 189.695 20.3529C190.434 20.5249 191.231 20.761 192.074 21.0651C193.729 21.6634 194.963 22.4804 195.769 23.4993C196.572 24.5144 196.98 25.8618 196.98 27.5282C196.98 29.9243 196.047 31.8468 194.179 33.3019C192.316 34.7521 189.793 35.4825 186.613 35.4825ZM209.369 35.4825C207.544 35.4825 205.936 35.3018 204.55 34.9471C203.166 34.5925 201.88 34.152 200.691 33.6222V27.8983H201.233C202.434 28.9197 203.751 29.7075 205.192 30.2552C206.631 30.8023 208.032 31.0778 209.391 31.0778C209.731 31.0778 210.182 31.0398 210.74 30.9675C211.303 30.894 211.752 30.765 212.094 30.6085C212.506 30.4204 212.869 30.1711 213.152 29.847C213.441 29.5174 213.585 29.0849 213.585 28.5495C213.585 27.9482 213.349 27.4546 212.878 27.0757C212.414 26.7012 211.846 26.4239 211.195 26.2531C210.386 26.0406 209.516 25.8325 208.59 25.6406C207.666 25.4486 206.801 25.2106 206.003 24.9289C204.151 24.2752 202.825 23.389 202.023 22.2791C201.222 21.1729 200.822 19.7789 200.822 18.1063C200.822 15.8541 201.771 14.0294 203.662 12.636C205.556 11.2394 207.922 10.544 210.756 10.544C212.182 10.544 213.599 10.6885 215.005 10.9802C216.408 11.2706 217.67 11.6645 218.782 12.1617V17.6645H218.256C217.368 16.9029 216.286 16.261 215.011 15.7382C213.735 15.2153 212.423 14.9486 211.074 14.9486C210.553 14.9486 210.08 14.986 209.665 15.0596C209.25 15.1331 208.81 15.2851 208.35 15.4952C207.98 15.6634 207.653 15.9177 207.385 16.2517C207.114 16.5882 206.974 16.964 206.974 17.3828C206.974 17.996 207.187 18.4852 207.621 18.846C208.051 19.205 208.893 19.5365 210.131 19.8232C210.929 20.0076 211.706 20.1802 212.45 20.3529C213.189 20.5249 213.987 20.761 214.83 21.0651C216.485 21.6634 217.719 22.4804 218.525 23.4993C219.328 24.5144 219.737 25.8618 219.737 27.5282C219.737 29.9243 218.803 31.8468 216.935 33.3019C215.072 34.7521 212.549 35.4825 209.369 35.4825Z" fill="white"/>
<path fill-rule="evenodd" clip-rule="evenodd" d="M89.1194 0.362318V9.31901H91.152V2.62659C95.824 4.32271 99.2786 8.64396 99.7355 13.7996H73.7983C74.2521 8.67988 77.6608 4.38285 82.2833 2.66221V9.31901H84.3159V0.380565C85.8981 0.0741423 87.5349 0.0684427 89.1194 0.362318ZM71.5156 19.8127H102.018V15.8461H71.5156V19.8127Z" fill="white"/>
</g>
<defs>
<clipPath id="clip0_104_18405">
<rect width="220" height="57" fill="white"/>
</clipPath>
</defs>
</svg>
