<svg width="190" height="49" viewBox="0 0 190 49" fill="none" xmlns="http://www.w3.org/2000/svg">
<g clip-path="url(#clip0_1_16802)">
<path fill-rule="evenodd" clip-rule="evenodd" d="M19.584 9.74201L12.4769 30.0176H7.06073L-0.046875 9.74201H5.33249L9.8303 23.4871L14.3282 9.74201H19.584ZM51.6334 39.2113L48.5072 46.5609C48.3228 46.9886 48.1143 47.326 47.8871 47.5726C47.6594 47.8188 47.4188 48.0066 47.1676 48.1352C46.9142 48.2617 46.6629 48.3483 46.4122 48.3903C46.161 48.4344 45.8969 48.4554 45.6195 48.4554C45.3298 48.4554 44.993 48.449 44.6107 48.4364C44.2264 48.4238 43.9709 48.4134 43.8399 48.4008V46.4575H43.9837C44.0222 46.4659 44.0805 46.4743 44.1596 46.4869C44.2392 46.4995 44.3403 46.51 44.4627 46.5226C44.5632 46.5309 44.6728 46.5399 44.7888 46.5462C44.9069 46.5546 45.0144 46.5588 45.1111 46.5588C45.3902 46.5588 45.6564 46.5247 45.9055 46.4554C46.1546 46.3877 46.3219 46.2696 46.4053 46.1033L42.9381 39.2113H45.4799L47.4899 43.5276L49.1904 39.2113H51.6334ZM60.5921 48.405H58.2347V45.0033C57.7905 45.102 57.404 45.1781 57.0752 45.2284C56.7491 45.2814 56.3199 45.3066 55.7917 45.3066C55.3881 45.3066 55.0123 45.2563 54.6643 45.1529C54.3163 45.0495 54.0073 44.8873 53.739 44.6638C53.4749 44.4381 53.2664 44.1579 53.1162 43.8252C52.9639 43.4919 52.889 43.0852 52.889 42.6087V39.2113H55.2459V41.3928C55.2459 41.7785 55.2593 42.0839 55.2871 42.3054C55.3149 42.5284 55.3988 42.7436 55.5362 42.9482C55.6629 43.1335 55.8409 43.2747 56.0708 43.3696C56.3001 43.4646 56.6224 43.5108 57.0346 43.5108C57.1827 43.5108 57.3804 43.5003 57.6317 43.4793C57.8824 43.4605 58.0823 43.4347 58.2347 43.4053V39.2113H60.5921V48.405ZM63.2746 48.405V39.2113H69.6129V40.9688H65.6192V42.5751H69.3034V44.3326H65.6192V46.647H69.6129V48.405H63.2746ZM79.4751 45.4667C79.4751 45.9159 79.3869 46.3268 79.2132 46.7041C79.0389 47.0815 78.8005 47.389 78.5001 47.6272C78.1371 47.9117 77.7485 48.1121 77.332 48.2302C76.9135 48.3462 76.4046 48.405 75.8059 48.405H71.9516V39.2113H78.7663V40.9688H74.2963V42.6638H75.8443C76.4067 42.6638 76.9092 42.7037 77.3534 42.7835C77.7982 42.8638 78.1975 43.0406 78.5498 43.313C78.8737 43.5591 79.1079 43.8693 79.2538 44.2403C79.4019 44.6134 79.4751 45.0222 79.4751 45.4667ZM77.053 45.5302C77.053 45.3785 77.0359 45.2347 77.0038 45.0978C76.9696 44.9629 76.8964 44.8364 76.7825 44.7225C76.6687 44.6113 76.512 44.5226 76.3148 44.457C76.117 44.3919 75.8443 44.3583 75.4942 44.3583H74.2963V46.6979H75.4942C75.9796 46.6979 76.3597 46.5966 76.6366 46.394C76.9135 46.194 77.053 45.9054 77.053 45.5302ZM89.4512 48.405H87.0937V44.3326H83.8987V48.405H81.5412V39.2113H83.8987V42.5751H87.0937V39.2113H89.4512V48.405ZM91.1335 48.405L94.3002 39.2113H96.8678L100.035 48.405H97.6151L97.0335 46.5462H94.0661L93.4866 48.405H91.1335ZM96.5139 44.8642L95.5495 41.8142L94.5857 44.8642H96.5139ZM109 48.405H106.655V45.0285H105.785L103.432 48.405H100.626L103.415 44.5898C102.842 44.3479 102.398 44.0062 102.086 43.5654C101.775 43.1272 101.618 42.5584 101.618 41.8625C101.618 41.3949 101.723 40.9861 101.936 40.6361C102.147 40.286 102.417 40.0016 102.743 39.778C103.029 39.5865 103.374 39.4432 103.784 39.3503C104.192 39.2574 104.661 39.2113 105.189 39.2113H109V48.405ZM106.655 43.3717V40.8932H105.899C105.534 40.8932 105.253 40.9037 105.056 40.9268C104.858 40.9499 104.667 41.0281 104.48 41.165C104.338 41.2684 104.229 41.4033 104.154 41.5696C104.078 41.736 104.04 41.9218 104.04 42.1238C104.04 42.3327 104.081 42.5221 104.16 42.689C104.24 42.8554 104.351 42.9923 104.493 43.0999C104.654 43.2243 104.841 43.2999 105.058 43.3277C105.274 43.357 105.558 43.3717 105.912 43.3717H106.655ZM119.504 48.5818C118.1 48.5818 116.986 48.1646 116.161 47.3302C115.334 46.4953 114.922 45.3234 114.922 43.81C114.922 42.3516 115.336 41.1902 116.163 40.3217C116.992 39.4558 118.106 39.0213 119.51 39.0213C119.882 39.0213 120.219 39.0423 120.515 39.0827C120.814 39.1247 121.097 39.1819 121.37 39.2553C121.584 39.3188 121.816 39.4028 122.068 39.5104C122.319 39.6159 122.523 39.7088 122.677 39.7864V41.9805H122.439C122.325 41.8814 122.183 41.7659 122.012 41.6284C121.838 41.4915 121.644 41.3566 121.426 41.2259C121.209 41.0952 120.968 40.9835 120.706 40.8911C120.444 40.8003 120.169 40.7541 119.884 40.7541C119.545 40.7541 119.233 40.8066 118.95 40.9121C118.669 41.0155 118.398 41.1986 118.143 41.4558C117.909 41.6898 117.715 42.0078 117.567 42.4067C117.419 42.805 117.344 43.2747 117.344 43.8162C117.344 44.3877 117.421 44.8684 117.576 45.2563C117.733 45.6441 117.934 45.9579 118.188 46.1961C118.431 46.426 118.701 46.5923 119.001 46.6958C119.3 46.7991 119.601 46.8495 119.897 46.8495C120.208 46.8495 120.503 46.7991 120.784 46.6999C121.065 46.6008 121.303 46.489 121.494 46.3667C121.705 46.2423 121.889 46.1138 122.048 45.9831C122.207 45.8524 122.347 45.7364 122.463 45.6357H122.677V47.7936C122.506 47.8718 122.306 47.9605 122.081 48.0612C121.855 48.1625 121.621 48.247 121.382 48.3163C121.088 48.4028 120.816 48.4679 120.56 48.5146C120.305 48.5587 119.953 48.5818 119.504 48.5818ZM124.814 48.405V39.2113H131.153V40.9688H127.159V42.5751H130.843V44.3326H127.159V46.647H131.153V48.405H124.814ZM135.295 48.405V40.9688H132.525V39.2113H140.422V40.9688H137.652V48.405H135.295ZM149.617 45.4667C149.617 45.9159 149.529 46.3268 149.355 46.7041C149.181 47.0815 148.942 47.389 148.64 47.6272C148.279 47.9117 147.89 48.1121 147.472 48.2302C147.053 48.3462 146.544 48.405 145.943 48.405H142.132V39.2113H144.49V42.6638H145.986C146.536 42.6638 147.034 42.7016 147.478 42.7772C147.922 42.8533 148.326 43.0322 148.691 43.313C149.016 43.5591 149.249 43.8693 149.396 44.2403C149.544 44.6134 149.617 45.0222 149.617 45.4667ZM147.195 45.5302C147.195 45.3785 147.178 45.2347 147.145 45.0978C147.111 44.9629 147.038 44.8364 146.924 44.7225C146.811 44.6113 146.654 44.5226 146.456 44.457C146.259 44.3919 145.986 44.3583 145.638 44.3583H144.49V46.6979H145.638C146.117 46.6979 146.495 46.5987 146.776 46.3982C147.055 46.1982 147.195 45.9096 147.195 45.5302ZM85.9295 18.8622C86.1476 21.9894 84.987 25.0358 82.7274 27.254C80.733 29.212 77.9778 30.4232 74.9351 30.4232C71.8918 30.4232 69.1371 29.212 67.1427 27.254C64.8826 25.0358 63.7225 21.9894 63.9407 18.8622H68.5438C68.5438 20.9351 68.8389 22.4937 70.4153 24.0413C71.5721 25.1764 73.1699 25.8791 74.9351 25.8791C76.7002 25.8791 78.298 25.1764 79.4543 24.0413C81.0312 22.4937 81.3263 20.9351 81.3263 18.8622H85.9295ZM39.0523 16.1381C39.0523 17.0816 38.9011 17.979 38.5931 18.8344C38.29 19.6845 37.8496 20.4004 37.2765 20.9724C36.9264 21.3256 36.5383 21.6509 36.1165 21.9532C35.6953 22.2502 35.2313 22.5058 34.725 22.7152C34.2134 22.9198 33.6639 23.0873 33.0673 23.2032C32.4713 23.3192 31.8031 23.3801 31.0601 23.3801H28.3423V30.0176H23.1431V9.74201H31.1691C32.3622 9.74201 33.3897 9.84906 34.2562 10.0632C35.1222 10.2767 35.9037 10.6115 36.6094 11.076C37.3855 11.583 37.987 12.2615 38.4135 13.1122C38.839 13.9581 39.0523 14.9668 39.0523 16.1381ZM33.7115 16.2635C33.7115 15.692 33.5741 15.204 33.2951 14.7899C33.0203 14.3811 32.6889 14.0977 32.3002 13.9439C31.8127 13.7351 31.3439 13.6139 30.8943 13.5818C30.449 13.5488 29.8428 13.5351 29.0763 13.5351H28.3423V19.5869H28.7021C29.1896 19.5869 29.6536 19.5822 30.0845 19.5733C30.5202 19.5639 30.8991 19.5313 31.221 19.4804C31.4957 19.4337 31.7892 19.345 32.1014 19.2154C32.4093 19.0805 32.6461 18.9362 32.8118 18.7735C33.162 18.4393 33.3988 18.0903 33.5271 17.7276C33.65 17.365 33.7115 16.877 33.7115 16.2635ZM62.0296 30.0176H55.6939L49.9457 22.5709H48.1089V30.0176H42.9381V9.74201H51.2479C52.394 9.74201 53.3931 9.81179 54.2452 9.95137C55.0978 10.0952 55.8837 10.388 56.6032 10.8299C57.342 11.2948 57.9289 11.8805 58.3646 12.5916C58.8003 13.3027 59.0184 14.209 59.0184 15.3063C59.0184 16.8586 58.6629 18.1134 57.9476 19.0805C57.2329 20.0472 56.2814 20.8144 55.0834 21.3859L62.0296 30.0176ZM53.677 15.9334C53.677 15.4223 53.5776 14.9856 53.3787 14.6183C53.1798 14.2509 52.8532 13.9629 52.394 13.7629C52.0717 13.628 51.7119 13.5446 51.3142 13.5073C50.9165 13.4701 50.4241 13.4517 49.8372 13.4517H48.1089V18.9178H49.586C50.306 18.9178 50.9165 18.8759 51.4184 18.7877C51.9204 18.7037 52.3465 18.5179 52.6966 18.234C53.0286 17.9832 53.2744 17.6767 53.4354 17.3236C53.5963 16.9704 53.677 16.5054 53.677 15.9334ZM108.418 28.8557C107.514 29.2183 106.334 29.5741 104.886 29.92C103.443 30.2647 102.012 30.4358 100.606 30.4358C97.3622 30.4358 94.7712 29.5148 92.8451 27.6749C90.9191 25.8356 89.9521 23.2268 89.9521 19.8472C89.9521 16.6634 90.9207 14.1161 92.8451 12.2011C94.7728 10.2836 97.4098 9.32373 100.757 9.32373C102.49 9.32373 103.892 9.48641 104.976 9.80708C106.06 10.1282 107.178 10.5696 108.333 11.1227V15.8778H107.86C107.614 15.6873 107.253 15.4175 106.784 15.0691C106.316 14.7206 105.86 14.4226 105.417 14.1764C104.901 13.8899 104.298 13.6369 103.617 13.4281C102.941 13.2208 102.22 13.1169 101.458 13.1169C100.573 13.1169 99.7576 13.2533 99.029 13.5257C98.2966 13.7996 97.6407 14.2147 97.0688 14.781C96.5208 15.3236 96.0905 16.0221 95.7714 16.8586C95.4533 17.6935 95.2929 18.6665 95.2929 19.7775C95.2929 22.1531 95.9002 23.9059 97.1115 25.0347C98.3228 26.1635 99.9805 26.7266 102.083 26.7266C102.267 26.7266 102.487 26.7209 102.736 26.713C102.986 26.7041 103.205 26.6894 103.39 26.671V22.6826H99.384V18.8622H108.418V28.8557ZM133.066 30.0176H126.731L120.983 22.5709H119.146V30.0176H113.975V9.74201H122.285C123.431 9.74201 124.431 9.81075 125.282 9.95137C126.134 10.092 126.924 10.3854 127.64 10.8299C128.38 11.2896 128.966 11.8805 129.401 12.5916C129.837 13.3027 130.055 14.209 130.055 15.3063C130.055 16.8586 129.7 18.1134 128.985 19.0805C128.27 20.0472 127.318 20.8144 126.12 21.3859L133.066 30.0176ZM124.714 15.9334C124.714 15.4223 124.614 14.9851 124.416 14.6183C124.217 14.2509 123.891 13.9592 123.431 13.7629C123.111 13.6265 122.748 13.5435 122.352 13.5073C121.955 13.4711 121.459 13.4517 120.874 13.4517H119.146V18.9178H120.623C121.343 18.9178 121.954 18.8727 122.455 18.7877C122.956 18.7027 123.38 18.5112 123.734 18.234C124.06 17.979 124.312 17.6762 124.473 17.3236C124.634 16.9704 124.714 16.5054 124.714 15.9334ZM135.642 30.0176V9.74201H149.62V13.6186H140.813V17.1609H148.938V21.0375H140.813V26.141H149.62V30.0176H135.642ZM161.166 30.3802C159.59 30.3802 158.202 30.228 157.004 29.9294C155.808 29.6308 154.699 29.2598 153.671 28.8137V23.9936H154.14C155.177 24.8537 156.314 25.517 157.559 25.9783C158.802 26.4391 160.011 26.671 161.185 26.671C161.479 26.671 161.868 26.639 162.35 26.5781C162.836 26.5162 163.224 26.4076 163.52 26.2758C163.876 26.1174 164.188 25.9069 164.433 25.6346C164.682 25.3564 164.807 24.9928 164.807 24.542C164.807 24.0355 164.603 23.6199 164.197 23.3008C163.796 22.9855 163.305 22.7519 162.743 22.6081C162.044 22.4292 161.294 22.2539 160.494 22.0923C159.695 21.9306 158.948 21.7302 158.259 21.493C156.659 20.9425 155.515 20.1957 154.822 19.2616C154.13 18.3296 153.785 17.1561 153.785 15.7476C153.785 13.8511 154.604 12.3145 156.237 11.1411C157.873 9.96503 159.917 9.37937 162.364 9.37937C163.595 9.37937 164.819 9.50111 166.034 9.74671C167.245 9.99125 168.335 10.3229 169.296 10.7417V15.3756H168.842C168.075 14.7343 167.14 14.1937 166.038 13.7535C164.937 13.3131 163.804 13.0885 162.639 13.0885C162.189 13.0885 161.781 13.12 161.422 13.182C161.063 13.2439 160.683 13.3719 160.285 13.5488C159.966 13.6905 159.685 13.9046 159.453 14.1859C159.218 14.4693 159.097 14.7857 159.097 15.1384C159.097 15.6547 159.283 16.0662 159.656 16.3706C160.028 16.6723 160.755 16.952 161.824 17.1934C162.513 17.3488 163.185 17.4941 163.827 17.6395C164.466 17.7843 165.155 17.9832 165.882 18.2393C167.312 18.7431 168.378 19.4311 169.074 20.2891C169.767 21.144 170.12 22.2786 170.12 23.6819C170.12 25.6997 169.314 27.3186 167.7 28.544C166.092 29.7652 163.912 30.3802 161.166 30.3802ZM180.819 30.3802C179.243 30.3802 177.854 30.228 176.657 29.9294C175.462 29.6308 174.351 29.2598 173.324 28.8137V23.9936H173.793C174.83 24.8537 175.967 25.517 177.211 25.9783C178.455 26.4391 179.664 26.671 180.838 26.671C181.132 26.671 181.522 26.639 182.003 26.5781C182.49 26.5162 182.877 26.4076 183.172 26.2758C183.528 26.1174 183.842 25.9074 184.086 25.6346C184.336 25.357 184.46 24.9928 184.46 24.542C184.46 24.0355 184.256 23.6199 183.85 23.3008C183.449 22.9855 182.958 22.7519 182.396 22.6081C181.697 22.4292 180.946 22.2539 180.147 22.0923C179.348 21.9306 178.601 21.7302 177.912 21.493C176.312 20.9425 175.168 20.1962 174.474 19.2616C173.783 18.3301 173.437 17.1561 173.437 15.7476C173.437 13.8511 174.257 12.3145 175.89 11.1411C177.526 9.96503 179.569 9.37937 182.017 9.37937C183.248 9.37937 184.472 9.50111 185.687 9.74671C186.898 9.99125 187.988 10.3229 188.949 10.7417V15.3756H188.494C187.727 14.7343 186.793 14.1937 185.692 13.7535C184.589 13.3131 183.457 13.0885 182.292 13.0885C181.842 13.0885 181.433 13.12 181.075 13.182C180.716 13.2439 180.336 13.3719 179.939 13.5488C179.619 13.6905 179.337 13.9046 179.105 14.1859C178.872 14.4693 178.75 14.7857 178.75 15.1384C178.75 15.6547 178.935 16.0667 179.309 16.3706C179.681 16.6728 180.408 16.952 181.477 17.1934C182.166 17.3488 182.838 17.4941 183.48 17.6395C184.118 17.7843 184.808 17.9832 185.535 18.2393C186.965 18.7431 188.03 19.4311 188.726 20.2891C189.42 21.144 189.773 22.2786 189.773 23.6819C189.773 25.6997 188.966 27.3186 187.353 28.544C185.745 29.7652 183.565 30.3802 180.819 30.3802Z" fill="#004084"/>
<path fill-rule="evenodd" clip-rule="evenodd" d="M76.9649 0.805007V8.34748H78.7204V2.71177C82.7553 4.14007 85.7388 7.77902 86.1335 12.1206H63.7331C64.1251 7.80927 67.0689 4.19072 71.0611 2.74176V8.34748H72.8165V0.820373C74.183 0.562333 75.5966 0.557533 76.9649 0.805007V0.805007ZM61.7617 17.1843H88.1048V13.844H61.7617V17.1843Z" fill="#EC650A"/>
</g>
<defs>
<clipPath id="clip0_1_16802">
<rect width="190" height="48" fill="white" transform="translate(0 0.5)"/>
</clipPath>
</defs>
</svg>
