<svg width="117" height="117" viewBox="0 0 117 117" fill="none" xmlns="http://www.w3.org/2000/svg">
<g clip-path="url(#clip0_1220_32753)">
<mask id="path-1-inside-1_1220_32753" fill="white">
<path d="M105.754 58.5059C105.754 50.9411 103.868 43.4931 100.263 36.8216C96.6585 30.1501 91.4461 24.461 85.0879 20.2583C78.7297 16.0555 71.4219 13.4688 63.8117 12.7274C56.2016 11.9859 48.524 13.1125 41.4591 16.0074C34.3942 18.9023 28.1601 23.4761 23.3089 29.3238C18.4577 35.1714 15.1392 42.1123 13.6474 49.5317C12.1555 56.9511 12.5364 64.6199 14.7562 71.859C16.976 79.098 20.9662 85.6837 26.3734 91.0328L26.8354 90.5757C21.5042 85.3018 17.57 78.8086 15.3814 71.6713C13.1928 64.534 12.8173 56.9729 14.2882 49.6578C15.7591 42.3427 19.031 35.4993 23.814 29.7338C28.597 23.9683 34.7436 19.4588 41.7092 16.6045C48.6748 13.7503 56.2444 12.6395 63.7477 13.3706C71.2509 14.1017 78.456 16.652 84.7249 20.7957C90.9938 24.9394 96.1329 30.5485 99.687 37.1263C103.241 43.7041 105.101 51.0474 105.101 58.5059H105.754Z"/>
</mask>
<path d="M105.754 58.5059C105.754 50.9411 103.868 43.4931 100.263 36.8216C96.6585 30.1501 91.4461 24.461 85.0879 20.2583C78.7297 16.0555 71.4219 13.4688 63.8117 12.7274C56.2016 11.9859 48.524 13.1125 41.4591 16.0074C34.3942 18.9023 28.1601 23.4761 23.3089 29.3238C18.4577 35.1714 15.1392 42.1123 13.6474 49.5317C12.1555 56.9511 12.5364 64.6199 14.7562 71.859C16.976 79.098 20.9662 85.6837 26.3734 91.0328L26.8354 90.5757C21.5042 85.3018 17.57 78.8086 15.3814 71.6713C13.1928 64.534 12.8173 56.9729 14.2882 49.6578C15.7591 42.3427 19.031 35.4993 23.814 29.7338C28.597 23.9683 34.7436 19.4588 41.7092 16.6045C48.6748 13.7503 56.2444 12.6395 63.7477 13.3706C71.2509 14.1017 78.456 16.652 84.7249 20.7957C90.9938 24.9394 96.1329 30.5485 99.687 37.1263C103.241 43.7041 105.101 51.0474 105.101 58.5059H105.754Z" stroke="white" stroke-width="2" mask="url(#path-1-inside-1_1220_32753)"/>
<mask id="path-2-inside-2_1220_32753" fill="white">
<path d="M74.3105 2.05755C65.0691 -0.418675 55.3596 -0.577561 46.0421 1.59497C36.7247 3.76749 28.0868 8.20438 20.8937 14.5126C13.7005 20.8208 8.17413 28.8057 4.80401 37.7598C1.4339 46.714 0.324082 56.3611 1.57288 65.8467C2.82167 75.3322 6.39053 84.3634 11.9633 92.1402C17.5361 99.917 24.9408 106.199 33.5216 110.431C42.1023 114.663 51.5942 116.713 61.1565 116.4C70.7187 116.087 80.0562 113.42 88.3418 108.636L87.9449 107.949C79.7723 112.667 70.5623 115.297 61.1305 115.606C51.6987 115.915 42.3363 113.893 33.8727 109.719C25.409 105.545 18.1054 99.3485 12.6086 91.6778C7.11186 84.0071 3.5917 75.0992 2.35995 65.7431C1.12819 56.387 2.22286 46.8715 5.54699 38.0395C8.87112 29.2075 14.3221 21.3316 21.4171 15.1095C28.5121 8.88731 37.0321 4.51098 46.2224 2.36809C55.4127 0.225209 64.9897 0.381926 74.105 2.82436L74.3105 2.05755Z"/>
</mask>
<path d="M74.3105 2.05755C65.0691 -0.418675 55.3596 -0.577561 46.0421 1.59497C36.7247 3.76749 28.0868 8.20438 20.8937 14.5126C13.7005 20.8208 8.17413 28.8057 4.80401 37.7598C1.4339 46.714 0.324082 56.3611 1.57288 65.8467C2.82167 75.3322 6.39053 84.3634 11.9633 92.1402C17.5361 99.917 24.9408 106.199 33.5216 110.431C42.1023 114.663 51.5942 116.713 61.1565 116.4C70.7187 116.087 80.0562 113.42 88.3418 108.636L87.9449 107.949C79.7723 112.667 70.5623 115.297 61.1305 115.606C51.6987 115.915 42.3363 113.893 33.8727 109.719C25.409 105.545 18.1054 99.3485 12.6086 91.6778C7.11186 84.0071 3.5917 75.0992 2.35995 65.7431C1.12819 56.387 2.22286 46.8715 5.54699 38.0395C8.87112 29.2075 14.3221 21.3316 21.4171 15.1095C28.5121 8.88731 37.0321 4.51098 46.2224 2.36809C55.4127 0.225209 64.9897 0.381926 74.105 2.82436L74.3105 2.05755Z" stroke="white" stroke-width="2" mask="url(#path-2-inside-2_1220_32753)"/>
<circle cx="59" cy="58" r="36" fill="white"/>
<path d="M68.1406 58.7022L54.0376 67.2517L54.0376 50.1527L68.1406 58.7022Z" fill="#004084"/>
</g>
<defs>
<clipPath id="clip0_1220_32753">
<rect width="117" height="117" fill="white"/>
</clipPath>
</defs>
</svg>
