<svg width="30" height="30" viewBox="0 0 30 30" fill="none" xmlns="http://www.w3.org/2000/svg">
<path d="M11.2378 4.62794C10.353 4.73744 9.78848 4.86799 9.12702 5.10805C6.91934 5.91244 5.13297 7.6981 4.32826 9.90491C4.13446 10.4356 4.0207 10.8651 3.91959 11.4674C3.81847 12.078 3.81847 13.2994 3.91959 13.91C4.22293 15.6999 4.96444 17.1613 6.20311 18.3952C7.43755 19.6334 8.89951 20.3746 10.6901 20.6779C11.301 20.7789 12.5228 20.7789 13.1337 20.6779C14.9243 20.3746 16.3863 19.6334 17.6207 18.3952C18.8594 17.1613 19.6009 15.6999 19.9042 13.91C20.0053 13.2994 20.0053 12.078 19.9042 11.4674C19.6009 9.67749 18.8594 8.21611 17.6207 6.98215C16.3947 5.75661 14.9201 5.00276 13.1758 4.70796C12.7882 4.64478 11.5369 4.59003 11.2378 4.62794ZM13.0916 6.75052C15.5099 7.24326 17.3342 9.06683 17.8566 11.5095C17.9325 11.8717 17.9493 12.0865 17.9493 12.6887C17.9493 13.2909 17.9325 13.5057 17.8566 13.8679C17.3342 16.3148 15.5394 18.1089 13.0916 18.6311C12.4596 18.7658 11.3642 18.7658 10.7322 18.6311C8.28439 18.1089 6.4896 16.3148 5.96717 13.8679C5.89133 13.5057 5.87448 13.2909 5.87448 12.6887C5.87448 11.8885 5.9461 11.4 6.1694 10.7514C6.92776 8.54039 8.87423 6.96109 11.2041 6.66629C11.6802 6.60733 12.586 6.64944 13.0916 6.75052Z" fill="white"/>
<path d="M11.4045 8.00184C11.3456 8.01027 11.1475 8.04817 10.9622 8.08186C9.33168 8.39772 7.93292 9.64853 7.42734 11.2489C7.30937 11.6195 7.19141 12.2681 7.19141 12.5292V12.6892H7.86129H8.52697L8.55646 12.3986C8.69549 10.9035 9.79091 9.69485 11.2866 9.38742C11.4635 9.34951 11.6784 9.32003 11.7627 9.32003H11.9101V8.6462V7.97236L11.7121 7.97657C11.5983 7.98078 11.4635 7.99342 11.4045 8.00184Z" fill="white"/>
<path d="M19.5658 18.1721C18.9844 18.9934 18.2134 19.7598 17.396 20.341L17 20.619L19.6079 23.2217C22.0052 25.618 22.2327 25.8328 22.4855 25.9507C23.2902 26.3255 24.1708 26.1739 24.7859 25.559C25.401 24.9442 25.5527 24.064 25.1777 23.2596C25.0597 23.0069 24.8449 22.7795 22.4476 20.3831L19.8439 17.7762L19.5658 18.1721Z" fill="white"/>
</svg>
