<svg width="17" height="15" viewBox="0 0 17 15" fill="none" xmlns="http://www.w3.org/2000/svg">
<path fill-rule="evenodd" clip-rule="evenodd" d="M0.37036 0.704971C-0.467324 1.28576 0.188549 1.94232 1.60927 1.94495C2.18609 1.94613 2.73855 1.99739 2.8368 2.05914C2.93506 2.12076 3.54008 3.92408 4.18139 6.06657C5.77531 11.3924 5.26351 10.9892 10.4312 10.9886C15.4064 10.9879 15.0061 11.2381 16.2393 7.36043C17.076 4.72984 17.1068 4.57383 16.8777 4.13031C16.4851 3.3703 16.6644 3.39115 10.5096 3.388L4.85434 3.38512L4.58023 2.47382C4.26547 1.42748 3.7689 0.844072 3.01689 0.637322C2.25018 0.426508 0.715312 0.465708 0.37036 0.704971ZM7.14983 11.9258C6.40748 12.2824 6.24262 13.4517 6.84526 14.0868C7.45863 14.7332 8.70761 14.5657 9.06487 13.7893C9.65374 12.5099 8.42423 11.3136 7.14983 11.9258ZM11.9549 12.04C10.6041 13.092 11.9382 15.1064 13.4673 14.3236C14.7018 13.6915 14.1911 11.7757 12.7882 11.7757C12.4935 11.7757 12.1574 11.8823 11.9549 12.04Z" fill="#EC650A"/>
</svg>
